<svg width="170" height="56" viewBox="0 0 170 56" fill="none" xmlns="http://www.w3.org/2000/svg">
<g filter="url(#filter0_d_263_326)">
<path d="M160 0H10.0003C6.68664 0 4.00037 2.68628 4.00037 5.99997V41.9998C4.00037 45.3135 6.68664 47.9998 10.0003 47.9998H160C163.313 47.9998 166 45.3135 166 41.9998V5.99997C166 2.68628 163.313 0 160 0Z" fill="black"/>
<path d="M160 0.959999C161.336 0.961543 162.617 1.49307 163.562 2.43797C164.507 3.38287 165.038 4.66397 165.039 6.00021V42C165.038 43.3363 164.507 44.6174 163.562 45.5623C162.617 46.5071 161.336 47.0387 160 47.0403H10.0003C8.66408 47.0387 7.383 46.5072 6.43815 45.5623C5.4933 44.6174 4.96184 43.3363 4.96036 42V6.00021C4.96182 4.66395 5.49327 3.38284 6.43813 2.43794C7.38298 1.49303 8.66408 0.961518 10.0003 0.959999H160ZM160 0.000244141H10.0003C8.41048 0.00489784 6.88706 0.63853 5.76286 1.76274C4.63865 2.88694 4.00502 4.41035 4.00037 6.00021L4.00037 42C4.00502 43.5899 4.63865 45.1133 5.76286 46.2375C6.88706 47.3617 8.41048 47.9953 10.0003 48H160C161.589 47.9953 163.113 47.3617 164.237 46.2375C165.361 45.1133 165.995 43.5899 166 42V6.00021C165.995 4.41035 165.361 2.88694 164.237 1.76274C163.113 0.63853 161.589 0.00489784 160 0.000244141V0.000244141Z" fill="#A6A6A6"/>
<path d="M60.9022 12.2919C60.924 12.7322 60.8559 13.1724 60.7022 13.5856C60.5485 13.9988 60.3122 14.3764 60.0079 14.6954C59.6669 15.0491 59.255 15.3268 58.7992 15.5104C58.3434 15.6939 57.854 15.7792 57.363 15.7606C56.8689 15.765 56.3788 15.6706 55.9217 15.4829C55.4646 15.2953 55.0496 15.0181 54.7011 14.6678C54.3526 14.3174 54.0777 13.9009 53.8924 13.4428C53.7072 12.9847 53.6154 12.4942 53.6225 12.0001C53.6155 11.5059 53.7073 11.0154 53.8925 10.5573C54.0778 10.0991 54.3527 9.68263 54.7012 9.33224C55.0496 8.98185 55.4646 8.70464 55.9217 8.51688C56.3788 8.32913 56.8689 8.23462 57.363 8.23891C57.8711 8.23737 58.374 8.34009 58.8408 8.54071C59.2743 8.71644 59.6602 8.99208 59.967 9.34518L59.3341 9.97854C59.0929 9.69468 58.7898 9.47003 58.448 9.32191C58.1063 9.17379 57.735 9.10617 57.363 9.12426C56.9885 9.12233 56.6175 9.19599 56.2721 9.34084C55.9268 9.4857 55.6142 9.69876 55.3532 9.96727C55.0921 10.2358 54.8879 10.5542 54.7528 10.9035C54.6177 11.2528 54.5546 11.6258 54.567 12.0001C54.5581 12.5607 54.7159 13.1113 55.0203 13.5822C55.3247 14.0531 55.7621 14.4229 56.277 14.6448C56.792 14.8668 57.3612 14.9308 57.9125 14.8288C58.4639 14.7268 58.9725 14.4634 59.374 14.072C59.7434 13.6738 59.9576 13.1563 59.9774 12.6135H57.363V11.7487H60.8518C60.8847 11.9279 60.9016 12.1097 60.9022 12.2919V12.2919Z" fill="white" stroke="white" stroke-width="0.2" stroke-miterlimit="10"/>
<path d="M66.4333 9.2849H63.1545V11.5677H66.1111V12.4326H63.1545V14.7154H66.4333V15.6001H62.2299V8.40015H66.4333V9.2849Z" fill="white" stroke="white" stroke-width="0.2" stroke-miterlimit="10"/>
<path d="M70.3345 15.6001H69.4087V9.2849H67.3977V8.40015H72.3454V9.2849H70.3345V15.6001Z" fill="white" stroke="white" stroke-width="0.2" stroke-miterlimit="10"/>
<path d="M75.9255 15.6001V8.40015H76.8501V15.6001H75.9255Z" fill="white" stroke="white" stroke-width="0.2" stroke-miterlimit="10"/>
<path d="M80.954 15.6001H80.0282V9.2849H78.0173V8.40015H82.9649V9.2849H80.954V15.6001Z" fill="white" stroke="white" stroke-width="0.2" stroke-miterlimit="10"/>
<path d="M92.3311 14.6697C91.6303 15.3684 90.6811 15.7607 89.6915 15.7607C88.7019 15.7607 87.7527 15.3684 87.0519 14.6697C86.7052 14.3185 86.4326 13.9012 86.2504 13.4426C86.0682 12.984 85.9801 12.4935 85.9913 12.0002C85.9801 11.5068 86.0682 11.0163 86.2504 10.5577C86.4326 10.0991 86.7052 9.6818 87.0519 9.33065C87.3982 8.98417 87.8096 8.70941 88.2623 8.52209C88.715 8.33477 89.2002 8.23858 89.6901 8.23902C90.18 8.23945 90.6651 8.33651 91.1175 8.52463C91.5698 8.71275 91.9807 8.98824 92.3264 9.33533C92.6734 9.68555 92.9464 10.1019 93.1294 10.5597C93.3124 11.0174 93.4016 11.5073 93.3917 12.0002C93.4026 12.4935 93.3143 12.9839 93.1321 13.4425C92.9499 13.901 92.6776 14.3183 92.3311 14.6697V14.6697ZM87.735 14.0668C88.254 14.5849 88.9575 14.876 89.6909 14.876C90.4243 14.876 91.1277 14.5849 91.6468 14.0668C91.9129 13.7943 92.1211 13.4707 92.2586 13.1155C92.3962 12.7603 92.4603 12.3808 92.4471 12.0002C92.4603 11.6195 92.3962 11.2401 92.2586 10.8849C92.1211 10.5296 91.9129 10.206 91.6468 9.93352C91.1277 9.41538 90.4243 9.12436 89.6909 9.12436C88.9575 9.12436 88.254 9.41538 87.735 9.93352C87.4692 10.2062 87.2614 10.5299 87.1241 10.8851C86.9867 11.2403 86.9227 11.6196 86.9358 12.0002C86.9227 12.3807 86.9867 12.76 87.1241 13.1152C87.2614 13.4704 87.4692 13.7941 87.735 14.0668V14.0668Z" fill="white" stroke="white" stroke-width="0.2" stroke-miterlimit="10"/>
<path d="M94.6901 15.6001V8.40015H95.8163L99.3154 14.0011H99.3553L99.3154 12.6136V8.40015H100.241V15.6001H99.2756L95.6146 9.72782H95.5748L95.6146 11.1154V15.6001H94.6901Z" fill="white" stroke="white" stroke-width="0.2" stroke-miterlimit="10"/>
<path d="M85.7629 26.1019C84.7543 26.1057 83.7694 26.4083 82.9327 26.9714C82.0959 27.5345 81.4447 28.333 81.0614 29.2659C80.6781 30.1988 80.5798 31.2244 80.7789 32.2132C80.978 33.202 81.4656 34.1096 82.1802 34.8214C82.8947 35.5332 83.8042 36.0174 84.7937 36.2128C85.7832 36.4081 86.8084 36.3059 87.7399 35.919C88.6713 35.5322 89.4673 34.878 90.0273 34.0391C90.5872 33.2002 90.886 32.2142 90.886 31.2056C90.8959 30.531 90.77 29.8612 90.5158 29.2363C90.2617 28.6113 89.8843 28.0439 89.4064 27.5677C88.9284 27.0915 88.3595 26.7164 87.7336 26.4646C87.1076 26.2127 86.4375 26.0894 85.7629 26.1019V26.1019ZM85.7629 34.2988C85.1417 34.3431 84.5217 34.1993 83.9833 33.8863C83.445 33.5732 83.0135 33.1053 82.7448 32.5435C82.4761 31.9818 82.3828 31.3521 82.477 30.7365C82.5712 30.121 82.8486 29.548 83.2729 29.0923C83.6973 28.6366 84.2491 28.3192 84.8564 28.1814C85.4637 28.0437 86.0984 28.092 86.6778 28.32C87.2573 28.548 87.7547 28.9452 88.1053 29.4599C88.4558 29.9746 88.6433 30.5828 88.6434 31.2056C88.6622 31.599 88.6022 31.9922 88.4668 32.362C88.3313 32.7319 88.1233 33.0709 87.8549 33.3591C87.5865 33.6474 87.2631 33.879 86.9039 34.0404C86.5446 34.2017 86.1566 34.2896 85.7629 34.2988V34.2988ZM74.5869 26.1019C73.5783 26.1057 72.5934 26.4082 71.7566 26.9714C70.9198 27.5345 70.2686 28.3329 69.8853 29.2658C69.502 30.1988 69.4036 31.2244 69.6027 32.2131C69.8018 33.2019 70.2894 34.1095 71.004 34.8214C71.7185 35.5332 72.628 36.0174 73.6175 36.2128C74.607 36.4081 75.6322 36.3059 76.5637 35.9191C77.4952 35.5322 78.2911 34.878 78.8511 34.0391C79.4111 33.2002 79.7099 32.2142 79.7099 31.2056C79.7198 30.531 79.5939 29.8613 79.3397 29.2363C79.0855 28.6113 78.7082 28.0439 78.2303 27.5677C77.7523 27.0916 77.1834 26.7164 76.5575 26.4646C75.9316 26.2128 75.2614 26.0894 74.5869 26.1019V26.1019ZM74.5869 34.2988C73.9657 34.3431 73.3456 34.1993 72.8073 33.8863C72.269 33.5732 71.8374 33.1053 71.5688 32.5435C71.3001 31.9818 71.2068 31.3521 71.301 30.7365C71.3952 30.121 71.6725 29.548 72.0969 29.0923C72.5213 28.6366 73.073 28.3192 73.6803 28.1814C74.2876 28.0437 74.9223 28.092 75.5018 28.32C76.0813 28.548 76.5787 28.9452 76.9293 29.4599C77.2798 29.9746 77.4673 30.5828 77.4673 31.2056C77.4862 31.599 77.4262 31.9922 77.2908 32.362C77.1553 32.7319 76.9473 33.0709 76.6789 33.3591C76.4105 33.6474 76.0871 33.879 75.7278 34.0404C75.3686 34.2018 74.9806 34.2896 74.5869 34.2988ZM61.2924 27.6679V29.833H66.4736C66.3988 30.8486 65.9833 31.8091 65.2942 32.5589C64.775 33.0882 64.1506 33.5027 63.4613 33.7757C62.772 34.0487 62.0332 34.1742 61.2924 34.1441C59.778 34.1236 58.3325 33.5076 57.2688 32.4294C56.2052 31.3513 55.6088 29.8976 55.6088 28.3831C55.6088 26.8685 56.2052 25.4149 57.2688 24.3367C58.3325 23.2585 59.778 22.6425 61.2924 22.622C62.747 22.603 64.1504 23.1588 65.1976 24.1686L66.7249 22.6413C66.0103 21.9339 65.1618 21.3763 64.2289 21.0012C63.2961 20.6261 62.2977 20.441 61.2924 20.4567C60.2418 20.4414 59.1986 20.6352 58.2235 21.0266C57.2485 21.4181 56.3609 21.9995 55.6126 22.7371C54.8642 23.4746 54.2699 24.3536 53.8643 25.3228C53.4587 26.2921 53.2498 27.3323 53.2498 28.3831C53.2498 29.4338 53.4587 30.474 53.8643 31.4433C54.2699 32.4126 54.8642 33.2915 55.6126 34.0291C56.3609 34.7666 57.2485 35.348 58.2235 35.7395C59.1986 36.131 60.2418 36.3247 61.2924 36.3094C62.3189 36.352 63.3428 36.1757 64.296 35.7924C65.2493 35.4091 66.1101 34.8275 66.8215 34.0862C68.0843 32.7077 68.7575 30.8896 68.6968 29.0211C68.7018 28.5673 68.6629 28.1141 68.5807 27.6679H61.2924ZM115.662 29.3497C115.355 28.4252 114.771 27.6176 113.99 27.0366C113.208 26.4555 112.266 26.1292 111.293 26.1019C110.637 26.1059 109.989 26.2429 109.388 26.5046C108.786 26.7662 108.244 27.1471 107.794 27.6241C107.345 28.1012 106.996 28.6645 106.77 29.2801C106.544 29.8957 106.445 30.5507 106.479 31.2056C106.464 31.8766 106.585 32.5437 106.834 33.167C107.083 33.7904 107.455 34.3572 107.927 34.8336C108.4 35.31 108.964 35.6862 109.586 35.9398C110.207 36.1933 110.873 36.319 111.544 36.3094C112.385 36.314 113.214 36.1098 113.956 35.715C114.698 35.3202 115.331 34.7472 115.797 34.0475L114.057 32.8876C113.797 33.3205 113.428 33.6782 112.987 33.9256C112.547 34.173 112.05 34.3016 111.544 34.2988C111.024 34.3187 110.51 34.1819 110.069 33.9061C109.628 33.6303 109.28 33.2283 109.07 32.7522L115.894 29.9297L115.662 29.3497ZM108.702 31.051C108.678 30.6795 108.729 30.307 108.85 29.9552C108.972 29.6034 109.163 29.2794 109.411 29.0022C109.66 28.725 109.961 28.5001 110.297 28.3407C110.633 28.1813 110.998 28.0905 111.37 28.0738C111.757 28.0483 112.144 28.1374 112.48 28.3299C112.817 28.5225 113.09 28.8099 113.265 29.1565L108.702 31.051ZM103.154 36H105.396V20.9982H103.154V36ZM99.4807 27.2425H99.4035C99.0625 26.872 98.6464 26.5787 98.183 26.382C97.7196 26.1853 97.2195 26.0898 96.7162 26.1019C95.4002 26.1579 94.1566 26.7201 93.2452 27.6711C92.3338 28.6221 91.825 29.8884 91.825 31.2056C91.825 32.5228 92.3338 33.7892 93.2452 34.7402C94.1566 35.6912 95.4002 36.2534 96.7162 36.3094C97.2215 36.3228 97.7236 36.226 98.1877 36.0257C98.6518 35.8254 99.0667 35.5264 99.4035 35.1495H99.4807V35.8841C99.4807 37.8367 98.4369 38.8806 96.7548 38.8806C96.1943 38.8672 95.6504 38.6872 95.1925 38.3636C94.7346 38.0399 94.3834 37.5873 94.1837 37.0633L92.2311 37.8754C92.5991 38.7714 93.2263 39.5371 94.0322 40.0744C94.8382 40.6117 95.7862 40.8961 96.7548 40.8912C99.3841 40.8912 101.607 39.3446 101.607 35.5747V26.4111H99.4807V27.2425ZM96.9096 34.2988C96.1345 34.2331 95.4123 33.8787 94.886 33.3059C94.3597 32.7331 94.0676 31.9835 94.0676 31.2056C94.0676 30.4277 94.3597 29.6782 94.886 29.1054C95.4123 28.5325 96.1345 28.1782 96.9096 28.1125C97.2953 28.1313 97.6732 28.2276 98.0208 28.3956C98.3684 28.5635 98.6786 28.7998 98.933 29.0902C99.1874 29.3807 99.3807 29.7194 99.5013 30.0861C99.622 30.4529 99.6676 30.8401 99.6354 31.2249C99.6656 31.6072 99.6183 31.9918 99.4964 32.3554C99.3745 32.7191 99.1806 33.0544 98.9261 33.3414C98.6716 33.6284 98.3619 33.8611 98.0154 34.0256C97.6689 34.1901 97.2928 34.283 96.9096 34.2988V34.2988ZM126.167 20.9984H120.801V36H123.04V30.3164H126.167C126.8 30.3511 127.434 30.2563 128.029 30.0379C128.625 29.8194 129.169 29.4819 129.63 29.0458C130.09 28.6098 130.457 28.0844 130.708 27.5018C130.959 26.9192 131.088 26.2916 131.088 25.6574C131.088 25.0231 130.959 24.3955 130.708 23.813C130.457 23.2304 130.09 22.705 129.63 22.269C129.169 21.8329 128.625 21.4954 128.029 21.2769C127.434 21.0585 126.8 20.9637 126.167 20.9984V20.9984ZM126.225 28.2286H123.04V23.0863H126.225C126.567 23.0792 126.907 23.1405 127.225 23.2665C127.543 23.3925 127.833 23.5808 128.077 23.8202C128.322 24.0597 128.516 24.3455 128.649 24.661C128.781 24.9765 128.85 25.3152 128.85 25.6575C128.85 25.9997 128.781 26.3384 128.649 26.6539C128.516 26.9694 128.322 27.2552 128.077 27.4947C127.833 27.7341 127.543 27.9224 127.225 28.0484C126.907 28.1744 126.567 28.2357 126.225 28.2286V28.2286ZM140.062 26.0743C139.245 26.0266 138.432 26.2185 137.722 26.6264C137.013 27.0344 136.437 27.6407 136.067 28.3709L138.055 29.2009C138.252 28.8384 138.551 28.5413 138.914 28.3459C139.278 28.1505 139.69 28.0653 140.101 28.1007C140.669 28.0452 141.236 28.2173 141.677 28.579C142.119 28.9408 142.399 29.4628 142.456 30.0307V30.1851C141.737 29.8031 140.935 29.6042 140.12 29.6061C137.978 29.6061 135.797 30.7834 135.797 32.9836C135.818 33.4473 135.932 33.9021 136.132 34.321C136.332 34.7398 136.614 35.1143 136.961 35.4221C137.308 35.7299 137.714 35.9648 138.154 36.1128C138.594 36.2609 139.059 36.319 139.522 36.2838C140.086 36.317 140.648 36.1984 141.151 35.9405C141.653 35.6825 142.077 35.2946 142.378 34.8171H142.456V35.9751H144.617V30.2237C144.617 27.5603 142.629 26.0743 140.062 26.0743V26.0743ZM139.792 34.2959C139.059 34.2959 138.036 33.9293 138.036 33.0221C138.036 31.8642 139.31 31.4202 140.41 31.4202C141.124 31.4012 141.831 31.5745 142.456 31.9221C142.373 32.5728 142.058 33.1717 141.569 33.6081C141.079 34.0444 140.448 34.2888 139.792 34.2959V34.2959ZM152.492 26.4024L149.925 32.9063H149.847L147.184 26.4024H144.772L148.767 35.4925L146.489 40.5491H148.824L154.981 26.4024H152.492ZM132.323 36H134.562V20.9984H132.323V36Z" fill="white"/>
<path d="M16.5227 9.04562C16.1292 9.5161 15.9305 10.1192 15.9673 10.7315V37.2707C15.9304 37.8829 16.1291 38.4861 16.5227 38.9565L16.6115 39.0431L31.4782 24.1765V23.8257L16.6115 8.9585L16.5227 9.04562Z" fill="url(#paint0_linear_263_326)"/>
<path d="M36.4335 29.1343L31.4782 24.1766V23.8258L36.4347 18.8694L36.5464 18.9331L42.4177 22.2692C44.0948 23.222 44.0948 24.781 42.4177 25.7344L36.5464 29.0705L36.4335 29.1343Z" fill="url(#paint1_linear_263_326)"/>
<path d="M36.5463 29.0699L31.4782 24.0012L16.5226 38.9566C16.8644 39.258 17.3008 39.4304 17.7562 39.4438C18.2116 39.4573 18.6574 39.311 19.0164 39.0303L36.5463 29.0699Z" fill="url(#paint2_linear_263_326)"/>
<path d="M36.5463 18.9324L19.0164 8.97199C18.6574 8.6913 18.2116 8.54501 17.7562 8.55847C17.3008 8.57193 16.8644 8.74428 16.5226 9.04567L31.4782 24.0012L36.5463 18.9324Z" fill="url(#paint3_linear_263_326)"/>
<path opacity="0.2" d="M36.4346 28.9583L19.0164 38.855C18.6713 39.1177 18.2501 39.261 17.8163 39.2633C17.3826 39.2656 16.9599 39.1268 16.612 38.8678L16.5226 38.9572L16.6114 39.0437L16.612 39.0431C16.9599 39.3023 17.3826 39.4412 17.8163 39.4389C18.2501 39.4366 18.6713 39.2931 19.0164 39.0303L36.5463 29.0699L36.4346 28.9583Z" fill="black"/>
<path opacity="0.12" d="M16.5226 38.7818C16.1292 38.3113 15.9305 37.7082 15.9673 37.0959V37.2713C15.9305 37.8835 16.1292 38.4866 16.5226 38.9571L16.612 38.8677L16.5226 38.7818Z" fill="black"/>
<path opacity="0.12" d="M42.4177 25.5585L36.4346 28.9583L36.5464 29.0699L42.4177 25.7338C42.7631 25.5839 43.0619 25.3442 43.2832 25.0395C43.5044 24.7349 43.6399 24.3765 43.6756 24.0017C43.6014 24.3411 43.449 24.6586 43.2307 24.9288C43.0123 25.199 42.7339 25.4146 42.4177 25.5585V25.5585Z" fill="black"/>
<path opacity="0.25" d="M19.0164 9.14786L42.4177 22.4438C42.7341 22.5876 43.0125 22.8033 43.2309 23.0736C43.4493 23.344 43.6016 23.6616 43.6756 24.0011C43.6402 23.6262 43.5048 23.2676 43.2835 22.9629C43.0622 22.6581 42.7632 22.4183 42.4177 22.2685L19.0164 8.97254C17.3392 8.01963 15.9673 8.81114 15.9673 10.7321V10.9074C15.9673 8.98658 17.3392 8.19507 19.0164 9.14786Z" fill="white"/>
</g>
<defs>
<filter id="filter0_d_263_326" x="0.000366211" y="0" width="169.999" height="56" filterUnits="userSpaceOnUse" color-interpolation-filters="sRGB">
<feFlood flood-opacity="0" result="BackgroundImageFix"/>
<feColorMatrix in="SourceAlpha" type="matrix" values="0 0 0 0 0 0 0 0 0 0 0 0 0 0 0 0 0 0 127 0" result="hardAlpha"/>
<feOffset dy="4"/>
<feGaussianBlur stdDeviation="2"/>
<feComposite in2="hardAlpha" operator="out"/>
<feColorMatrix type="matrix" values="0 0 0 0 0 0 0 0 0 0 0 0 0 0 0 0 0 0 0.25 0"/>
<feBlend mode="normal" in2="BackgroundImageFix" result="effect1_dropShadow_263_326"/>
<feBlend mode="normal" in="SourceGraphic" in2="effect1_dropShadow_263_326" result="shape"/>
</filter>
<linearGradient id="paint0_linear_263_326" x1="30.1598" y1="10.4517" x2="10.021" y2="30.5905" gradientUnits="userSpaceOnUse">
<stop stop-color="#00A0FF"/>
<stop offset="0.00657" stop-color="#00A1FF"/>
<stop offset="0.2601" stop-color="#00BEFF"/>
<stop offset="0.5122" stop-color="#00D2FF"/>
<stop offset="0.7604" stop-color="#00DFFF"/>
<stop offset="1" stop-color="#00E3FF"/>
</linearGradient>
<linearGradient id="paint1_linear_263_326" x1="44.6013" y1="24.0018" x2="15.5652" y2="24.0018" gradientUnits="userSpaceOnUse">
<stop stop-color="#FFE000"/>
<stop offset="0.4087" stop-color="#FFBD00"/>
<stop offset="0.7754" stop-color="#FFA500"/>
<stop offset="1" stop-color="#FF9C00"/>
</linearGradient>
<linearGradient id="paint2_linear_263_326" x1="33.7924" y1="26.7553" x2="6.48262" y2="54.0651" gradientUnits="userSpaceOnUse">
<stop stop-color="#FF3A44"/>
<stop offset="1" stop-color="#C31162"/>
</linearGradient>
<linearGradient id="paint3_linear_263_326" x1="12.757" y1="0.211525" x2="24.9519" y2="12.4065" gradientUnits="userSpaceOnUse">
<stop stop-color="#32A071"/>
<stop offset="0.0685" stop-color="#2DA771"/>
<stop offset="0.4762" stop-color="#15CF74"/>
<stop offset="0.8009" stop-color="#06E775"/>
<stop offset="1" stop-color="#00F076"/>
</linearGradient>
</defs>
</svg>
